# xmcd
#
# Track frame offsets:
#	150
#	11950
#	24632
#	38050
#	50212
#	61385
#	73305
#	84410
#	103787
#	116767
#	128830
#	142035
#	155847
#	171000
#	185165
#	198520
#
# Disc length: 2832 seconds
#
# Revision: 0
# Processed by: cddbd v1.4PL0 Copyright (c) Steve Scherf et al.
# Submitted via: dBpowerAMP V4.0
#
DISCID=f70b0e10
DTITLE=Tammy Wynette - Biggest Hits
DYEAR=1900
DGENRE=Country
TTITLE0=I Don't Wanna Play House
TTITLE1=Take Me To Your World
TTITLE2=D.I.V.O.R.C.E.
TTITLE3=Stand By You Man
TTITLE4=The Ways To Love A Man
TTITLE5=When He Loves Me (He Loves Me All The Way)
TTITLE6=Run Woman Run
TTITLE7=Bedtime Story
TTITLE8=My Man
TTITLE9=Till I Get It Right
TTITLE10=Kids (Say The Darndest Things)
TTITLE11='Til I Can Make It On My Own
TTITLE12=You And Me
TTITLE13=Starting Over
TTITLE14=Cowboys Don't Shoot Straight (Like They Used To)
TTITLE15=Crying In The Rain
EXTD=
EXTT0=
EXTT1=
EXTT2=
EXTT3=
EXTT4=
EXTT5=
EXTT6=
EXTT7=
EXTT8=
EXTT9=
EXTT10=
EXTT11=
EXTT12=
EXTT13=
EXTT14=
EXTT15=
PLAYORDER=
